<?xml version="1.0" encoding="UTF-8"?>
<svg id="Layer_1" data-name="Layer 1" xmlns="http://www.w3.org/2000/svg" viewBox="0 0 150 150">
  <defs>
    <style>
      .cls-1 {
        fill: #fff;
        stroke-width: 0px;
      }
    </style>
  </defs>
  <path class="cls-1" d="m124.29,61.79c-7.28-27.17-35.31-43.36-62.48-36.07-13.16,3.53-24.16,11.97-30.98,23.77-6.81,11.8-8.62,25.55-5.1,38.71,3.53,13.16,11.97,24.16,23.77,30.98,7.86,4.54,16.58,6.86,25.42,6.86,4.43,0,8.89-.58,13.29-1.76,27.17-7.28,43.36-35.31,36.07-62.48Zm-38.74,52.52c-10.5,2.81-21.47,1.37-30.89-4.07-9.42-5.44-16.15-14.21-18.96-24.71-5.81-21.68,7.1-44.04,28.78-49.85,3.52-.94,7.05-1.39,10.53-1.39,17.97,0,34.46,12.01,39.33,30.17,5.81,21.68-7.1,44.04-28.78,49.85Z"/>
  <path class="cls-1" d="m58.75,84.1c.44,0,.89-.06,1.34-.18l16.15-4.33c2.75-.74,4.38-3.56,3.65-6.32l-7.31-27.28c-.74-2.75-3.57-4.39-6.32-3.65-2.75.74-4.38,3.56-3.65,6.32l5.97,22.3-11.17,2.99c-2.75.74-4.38,3.56-3.65,6.32.62,2.3,2.7,3.82,4.98,3.82Z"/>
  <path class="cls-1" d="m101.21,78.68c-2.69-.94-5.63.47-6.57,3.16-2.28,6.5-7.6,11.45-14.25,13.23-6.64,1.78-13.73.16-18.95-4.33-2.16-1.86-5.42-1.61-7.27.55-1.86,2.16-1.61,5.42.55,7.27,5.72,4.92,12.94,7.54,20.3,7.54,2.69,0,5.39-.35,8.05-1.06,9.94-2.66,17.91-10.06,21.31-19.78.94-2.69-.47-5.63-3.16-6.57Z"/>
</svg>